<svg xmlns="http://www.w3.org/2000/svg" version="1.1" viewBox="254.48876953125 264.8857727050781 572.4429321289062 518.1502990722656">
<path d="M0 0 C5.50325133 4.06847509 10.80026177 9.73054057 12.1875 16.6171875 C13.00846126 25.11413659 12.70822096 32.25125754 8.1875 39.6171875 C7.65125 40.5040625 7.115 41.3909375 6.5625 42.3046875 C-0.99797787 49.66620543 -8.83880152 52.05283264 -19.1640625 51.95703125 C-27.28188663 51.20087418 -32.95179412 47.05174196 -38.53515625 41.36328125 C-39.94248031 39.439508 -40.300855 37.91973865 -40.8125 35.6171875 C-49.45464655 35.42229758 -58.09309139 35.30503109 -66.73723888 35.28296852 C-70.75280687 35.27036247 -74.76460427 35.23246031 -78.77905273 35.13378906 C-97.14788308 33.83818186 -97.14788308 33.83818186 -113.7265625 39.62939453 C-116.60372091 42.4048231 -118.80111799 45.41018852 -120.78137207 48.87307739 C-122.37489214 51.56845046 -124.40833952 53.86744747 -126.4375 56.2421875 C-127.14132812 57.12132812 -127.84515625 58.00046875 -128.5703125 58.90625 C-131.05156629 61.90623281 -133.66115956 64.7687078 -136.3125 67.6171875 C-140.57478896 72.19727225 -144.55767191 76.93550933 -148.48046875 81.8125 C-151.94664332 85.98119906 -155.63227912 89.92927424 -159.33203125 93.890625 C-160.95456338 95.67413276 -162.51879859 97.51291964 -164.01171875 99.40625 C-166.27309007 102.1826842 -167.14300515 102.52986208 -170.6875 102.9921875 C-173.8125 102.6171875 -173.8125 102.6171875 -176.1875 100.4296875 C-177.99934917 97.29379471 -178.31946952 96.15552119 -177.8125 92.6171875 C-175.94140625 90.109375 -175.94140625 90.109375 -173.375 87.4921875 C-172.44812064 86.52442853 -171.52369575 85.55431364 -170.6015625 84.58203125 C-170.13266602 84.0907373 -169.66376953 83.59944336 -169.18066406 83.09326172 C-167.09000069 80.83770305 -165.17476628 78.45214373 -163.25 76.0546875 C-160.36401207 72.47890281 -157.40805196 69.01317432 -154.3125 65.6171875 C-151.19791332 62.19979378 -148.2206338 58.711964 -145.3125 55.1171875 C-141.70794337 50.661555 -137.94316335 46.4017946 -134.078125 42.171875 C-130.89400764 38.58150819 -127.92084037 34.83259767 -124.953125 31.0625 C-119.48453229 24.81553096 -113.74120521 22.06251828 -105.49575806 21.31750488 C-101.5678549 21.17555883 -97.6447182 21.12286442 -93.71484375 21.10546875 C-92.27037559 21.08859364 -90.82592186 21.07043966 -89.38148499 21.05107117 C-85.60869865 21.00387175 -81.83597084 20.97386927 -78.06298828 20.94763184 C-74.20137986 20.91767319 -70.33997257 20.87119609 -66.47851562 20.82617188 C-58.92327756 20.74048155 -51.36802431 20.67298547 -43.8125 20.6171875 C-43.56218018 19.87460693 -43.31186035 19.13202637 -43.05395508 18.36694336 C-42.71259521 17.38604736 -42.37123535 16.40515137 -42.01953125 15.39453125 C-41.68671143 14.42507568 -41.3538916 13.45562012 -41.01098633 12.45678711 C-38.00632661 5.33778179 -32.66641056 0.85016418 -25.8125 -2.3828125 C-17.35632997 -5.09099767 -7.6491174 -4.45359796 0 0 Z " fill="#000000" transform="translate(812.8125,269.3828125)"/>
<path d="M0 0 C9.26201068 8.88672662 17.02245492 22.435415 17.78562927 35.49971008 C17.80150589 36.55337265 17.81738251 37.60703522 17.83374023 38.69262695 C17.85303085 39.89099686 17.87232147 41.08936676 17.89219666 42.3240509 C17.95003045 47.79242483 17.99948866 53.26065247 18.0300293 58.72924805 C18.04783727 61.61316455 18.08265503 64.49610223 18.13256836 67.37963867 C18.1929462 70.87273264 18.22352714 74.36492011 18.23320198 77.85851097 C18.24585146 79.82560347 18.28785534 81.79243709 18.33042908 83.7591095 C18.30749121 93.74465748 18.30749121 93.74465748 14.77368164 97.99291992 C10.65667613 101.98806139 7.60778001 103.02448539 1.88671875 103.27734375 C0.50560731 103.34603233 -0.87549589 103.41488669 -2.2565918 103.48388672 C-2.98002777 103.51673767 -3.70346375 103.54958862 -4.44882202 103.58343506 C-23.38337099 104.46360753 -42.31121532 105.57028419 -60.375 111.75 C-61.72078125 112.15992188 -61.72078125 112.15992188 -63.09375 112.578125 C-70.29510071 115.02302802 -75.0883478 119.39557021 -80.375 124.75 C-81.138125 125.5028125 -81.90125 126.255625 -82.6875 127.03125 C-107.11290402 152.47437918 -112.24421543 188.94959049 -111.61199951 222.69232178 C-110.85142612 250.39823543 -100.00697791 275.02147881 -80.01171875 293.9921875 C-62.43874543 309.17287369 -39.04842021 313.95329431 -16.390625 313.7265625 C-15.67966171 313.72047974 -14.96869843 313.71439697 -14.2361908 313.70812988 C-10.62854022 313.67230612 -7.0244627 313.60776365 -3.41821289 313.50097656 C-2.06657691 313.47676822 -0.71493319 313.45298755 0.63671875 313.4296875 C2.43822388 313.37917236 2.43822388 313.37917236 4.27612305 313.32763672 C9.63694514 314.00374828 12.65166901 316.54423176 15.98046875 320.66796875 C18.74837841 326.073348 18.08233253 332.15239832 17.9375 338.0625 C17.90994629 339.97627441 17.90994629 339.97627441 17.88183594 341.92871094 C17.83804311 344.57262124 17.78376099 347.21637764 17.71923828 349.85986328 C17.63057335 353.51993341 17.5762915 357.17906731 17.52734375 360.83984375 C17.12752375 381.68932501 14.64889534 399.47008672 0.625 415.75 C0.11453125 416.35585938 -0.3959375 416.96171875 -0.921875 417.5859375 C-13.97420168 431.86595828 -34.83301453 437.87532422 -53.58203125 438.86669922 C-72.48826147 439.65445881 -92.90111401 437.10788828 -107.640625 424.16796875 C-109.42882048 422.53447575 -109.42882048 422.53447575 -112.375 421.75 C-114.28633623 422.13864803 -116.18115867 422.61040475 -118.0625 423.125 C-142.08294997 428.9037557 -166.2262639 424.21032545 -187.375 411.75 C-190.95360949 409.31778489 -194.17673453 406.66078094 -197.375 403.75 C-198.29152344 402.92628906 -199.20804687 402.10257813 -200.15234375 401.25390625 C-208.28461545 393.56784974 -215.36444687 384.72878332 -218.375 373.75 C-218.375 372.43 -218.375 371.11 -218.375 369.75 C-219.24898437 369.62044922 -219.24898437 369.62044922 -220.140625 369.48828125 C-237.4854792 366.51565687 -253.36198301 356.78125338 -263.71875 342.5234375 C-270.35688793 332.81308133 -276.00221626 322.30013457 -275.12109375 310.21484375 C-273.88667619 296.12154284 -273.88667619 296.12154284 -279.875 284.0625 C-281.24011719 282.75925781 -281.24011719 282.75925781 -282.6328125 281.4296875 C-295.61310759 268.74523959 -299.98242764 248.28326223 -300.38623047 230.81347656 C-300.3071953 216.29162367 -297.3591051 198.3053936 -287.13671875 187.3515625 C-282.75614423 182.70560527 -282.75614423 182.70560527 -281.41064453 176.66601562 C-282.02937639 172.56460672 -283.12350878 168.60460296 -284.19140625 164.6015625 C-288.85759453 146.85670502 -283.38246957 128.19922566 -274.625 112.625 C-268.00875886 102.06608831 -258.69513165 92.43056112 -247.5625 86.8125 C-243.94913094 84.62440429 -242.1811967 82.95606938 -241 78.953125 C-240.3088817 76.00129238 -239.77928507 73.02609009 -239.2421875 70.04296875 C-237.24421693 59.16433041 -230.6348161 50.76916295 -223.375 42.75 C-222.55128906 41.82058594 -221.72757812 40.89117187 -220.87890625 39.93359375 C-208.54003734 26.7513549 -191.23437607 17.65024056 -173.375 14.75 C-170.87515276 14.71539083 -168.37507511 14.69514549 -165.875 14.6875 C-158.24732951 14.31504 -154.84709312 11.57219783 -149.40625 6.453125 C-115.11891772 -25.52727595 -35.67544755 -30.04248215 0 0 Z M-143.22949219 21.87963867 C-148.69834662 27.20640828 -152.0514196 29.05688536 -159.75 29.1875 C-180.18118071 30.02941849 -197.33981938 38.15599136 -211.375 52.75 C-212.06207031 53.42933594 -212.74914062 54.10867188 -213.45703125 54.80859375 C-221.74277368 63.49147416 -225.02024477 73.65576343 -226.90698242 85.2512207 C-227.72667276 89.9587512 -228.34790055 92.78705636 -232.375 95.75 C-234.3687173 97.00256862 -236.39288512 98.20735845 -238.4375 99.375 C-252.85946321 108.01922019 -264.36817316 120.53095698 -268.7890625 137.05859375 C-270.66393203 148.87027176 -270.96567096 161.95827221 -265.31640625 172.77734375 C-263.67022437 176.226812 -263.37560512 179.12414664 -264.375 182.75 C-266.37670616 185.6329883 -268.61315322 188.20106218 -270.921875 190.84375 C-281.87775858 203.82333183 -285.63014944 219.09991774 -284.54638672 235.73046875 C-283.2430818 251.08793066 -276.46228156 266.82307169 -265.375 277.75 C-261.6234894 280.16203928 -261.6234894 280.16203928 -257.375 280.75 C-257.1256643 282.35115576 -256.90121352 283.95620159 -256.6875 285.5625 C-256.49607422 286.90248047 -256.49607422 286.90248047 -256.30078125 288.26953125 C-256.32527344 289.08808594 -256.34976563 289.90664063 -256.375 290.75 C-256.86258789 291.20785889 -257.35017578 291.66571777 -257.85253906 292.13745117 C-259.79464859 294.19448027 -259.77239974 295.23862816 -259.80859375 298.03125 C-259.82003418 298.8680127 -259.83147461 299.70477539 -259.84326172 300.56689453 C-259.83311035 301.45231934 -259.82295898 302.33774414 -259.8125 303.25 C-259.80492676 304.15476074 -259.79735352 305.05952148 -259.78955078 305.99169922 C-259.61957639 312.90109635 -258.63143188 318.58205425 -255.375 324.75 C-254.95089844 325.595625 -254.52679688 326.44125 -254.08984375 327.3125 C-246.35925008 341.43859874 -233.53817073 350.12468749 -218.375 354.75 C-217.44816406 355.00265625 -216.52132812 355.2553125 -215.56640625 355.515625 C-214.67824219 355.75796875 -213.79007812 356.0003125 -212.875 356.25 C-212.0809375 356.4459375 -211.286875 356.641875 -210.46875 356.84375 C-206.77385577 358.44303258 -205.66180811 361.0382204 -204.19921875 364.66796875 C-203.82410156 365.74691406 -203.44898438 366.82585937 -203.0625 367.9375 C-196.39682668 385.64010421 -182.56636726 396.63309297 -165.76953125 404.421875 C-156.61370061 408.07132684 -147.92269264 410.12844429 -138.0625 410.0625 C-137.24015869 410.06048584 -136.41781738 410.05847168 -135.57055664 410.05639648 C-128.27260748 409.93701579 -120.98320305 409.05410153 -114.375 405.75 C-109.54654064 404.98357788 -106.87997216 404.70266688 -102.79296875 407.546875 C-100.96549331 409.14156807 -99.14552002 410.74488781 -97.33203125 412.35546875 C-83.66687671 423.42117514 -66.13117255 423.91971536 -49.375 422.75 C-34.7611289 421.01831455 -20.19927567 416.22059831 -10.57421875 404.5703125 C-1.21774947 392.02823591 1.99613355 378.47680538 1.8203125 363.05078125 C1.8174826 362.0897197 1.81465271 361.12865814 1.81173706 360.13847351 C1.80067314 357.11301433 1.77559573 354.08786747 1.75 351.0625 C1.73995233 348.99284286 1.73082964 346.92318101 1.72265625 344.85351562 C1.70077923 339.81889277 1.6663472 334.78449906 1.625 329.75 C0.97225601 329.76358047 0.31951202 329.77716095 -0.35301208 329.79115295 C-33.83408666 330.45713204 -69.65349712 326.15703995 -95.0390625 302.0859375 C-119.68437956 277.44062044 -127.43693351 245.85808066 -127.6875 211.875 C-127.65960779 200.49846403 -126.93334809 189.82190605 -124.375 178.75 C-124.20871094 177.96544434 -124.04242188 177.18088867 -123.87109375 176.37255859 C-118.74135985 152.19156294 -109.0910018 130.24016041 -91.375 112.75 C-90.52679688 111.90308594 -89.67859375 111.05617188 -88.8046875 110.18359375 C-80.70033196 102.47302351 -71.87096508 98.45888472 -61.125 95.625 C-60.17173828 95.37202148 -59.21847656 95.11904297 -58.23632812 94.85839844 C-38.32345679 89.78526389 -17.80830741 88.90546723 2.625 87.75 C2.67484907 81.56104677 2.71093015 75.37221328 2.73486328 69.18310547 C2.74485236 67.08249879 2.75844825 64.98190577 2.77587891 62.88134766 C3.14322513 35.93863646 3.14322513 35.93863646 -9.5625 12.8125 C-41.98022135 -15.71509479 -113.43644504 -7.16120778 -143.22949219 21.87963867 Z " fill="#000000" transform="translate(555.375,317.25)"/>
<path d="M0 0 C2.125 2.375 2.125 2.375 2.5625 5.4375 C2.125 8.375 2.125 8.375 0.125 11.375 C-3 12.1484375 -3 12.1484375 -6.875 12.75 C-15.27693969 14.24923461 -22.75009586 16.26841193 -28.3125 23.1875 C-31.98934897 28.72866676 -33.697765 34.10114297 -34.75 40.625 C-35.40727393 44.15037836 -35.7658487 45.24814849 -38.1875 48.0625 C-40.875 49.375 -40.875 49.375 -43.5 49.375 C-46.51194029 48.10681461 -47.43663315 47.32743722 -48.875 44.375 C-50.18779936 34.24769062 -46.19116874 23.05108736 -40.703125 14.625 C-33.07256476 5.23354125 -23.50832109 0.47243401 -11.8046875 -1.328125 C-3.78715864 -2.14056792 -3.78715864 -2.14056792 0 0 Z " fill="#000000" transform="translate(474.875,361.625)"/>
<path d="M0 0 C2.0593574 2.8758198 1.94872635 4.6976929 1.546875 8.16015625 C-0.49389057 11.14281363 -1.73604411 12.00080494 -5.265625 12.78515625 C-9.22064227 12.00966267 -10.72389103 10.36750552 -13.6171875 7.6953125 C-18.8619894 3.30976538 -24.98199549 2.61581932 -31.640625 2.80078125 C-37.3493192 3.53022551 -42.39502941 5.77213829 -47.140625 8.97265625 C-50.51175919 10.70377921 -52.85516542 10.04267464 -56.453125 9.16015625 C-58.453125 7.16015625 -58.453125 7.16015625 -59.140625 3.97265625 C-58.22696069 -1.09402763 -56.19771436 -2.39591947 -52.08984375 -5.265625 C-34.65446258 -15.67519331 -15.21679093 -13.13932125 0 0 Z " fill="#000000" transform="translate(411.453125,433.83984375)"/>
<path d="M0 0 C0.84046875 -0.01675781 1.6809375 -0.03351563 2.546875 -0.05078125 C10.51960619 1.02069852 17.27181267 7.3138121 22.25 13.3125 C30.06852125 25.18603981 32.20111262 37.87522285 29.6015625 51.78125 C26.17667421 63.1389992 18.14228713 72.29419668 8.1796875 78.62890625 C-1.28227454 83.65673314 -11.85065263 84.79274371 -22.3125 82.5 C-27.35194175 80.75910194 -27.35194175 80.75910194 -28.75 78.3125 C-29.25 75.375 -29.25 75.375 -28.75 72.3125 C-26.66193806 70.01195426 -25.02024336 68.46016864 -21.84521484 68.09106445 C-19.61696814 68.13538059 -17.41021884 68.27572499 -15.1875 68.4375 C-6.8170543 68.72094277 -0.58969636 67.54663383 6.25 62.3125 C12.84923644 55.78309675 15.52202238 49.3681827 15.6875 40.0625 C15.57026481 31.53782689 13.25785202 26.20501438 8.125 19.5625 C4.56971594 16.78010378 0.79394708 14.77998003 -3.2265625 12.7421875 C-5.5040912 11.45182294 -7.03247786 10.26056203 -8.75 8.3125 C-6.22872551 0.02831239 -6.22872551 0.02831239 0 0 Z " fill="#000000" transform="translate(348.75,497.6875)"/>
<path d="M0 0 C6.50302877 3.7969987 11.83518552 9.39130894 14.125 16.67578125 C15.78890121 25.51525641 15.30232739 34.21977913 10.5625 42 C5.194854 48.82308147 -0.69712171 52.90745271 -9.4375 54 C-16.7405748 54.57279018 -23.2196331 53.32452142 -29.1953125 49.0078125 C-33.79023723 45.02911674 -37.01336903 41.65110917 -39.4375 36 C-39.4375 35.34 -39.4375 34.68 -39.4375 34 C-40.07287563 34.00460896 -40.70825127 34.00921793 -41.36288071 34.01396656 C-56.81954348 34.12436518 -72.27606923 34.20711702 -87.73302841 34.25906086 C-95.20790511 34.28484794 -102.68251872 34.32000758 -110.15722656 34.37719727 C-116.67183934 34.42701743 -123.1862616 34.45928737 -129.70105958 34.47044247 C-133.15104139 34.47696379 -136.60047815 34.49229968 -140.05028534 34.52865028 C-143.90048983 34.56889119 -147.75016001 34.56995031 -151.60058594 34.56762695 C-152.74569641 34.58560333 -153.89080688 34.60357971 -155.07061768 34.62210083 C-162.77590992 34.57160671 -162.77590992 34.57160671 -166.14605713 31.65983582 C-167.71101888 28.43666474 -168.05231451 26.53518343 -167.4375 23 C-164.93791911 20.2461055 -163.37338674 19.99327811 -159.63444519 19.60127258 C-158.06922348 19.57486706 -156.50367437 19.56484152 -154.93823242 19.56762695 C-154.08036133 19.5574353 -153.22249023 19.54724365 -152.33862305 19.53674316 C-149.49000566 19.50647435 -146.64172645 19.49730612 -143.79296875 19.48828125 C-141.7878563 19.47140051 -139.78275421 19.45324582 -137.77766418 19.43388367 C-132.47131698 19.38624258 -127.16501125 19.35658468 -121.85852051 19.33044434 C-116.58071721 19.30115531 -111.30307757 19.25413703 -106.02539062 19.20898438 C-83.82959416 19.02708336 -61.63399976 18.94710508 -39.4375 19 C-39.29127197 18.21681396 -39.14504395 17.43362793 -38.99438477 16.62670898 C-37.54514217 9.79093471 -33.06936282 5.24888478 -27.59765625 1.2265625 C-19.37975609 -3.43965929 -8.60173436 -3.91227428 0 0 Z " fill="#000000" transform="translate(811.4375,502)"/>
<path d="M0 0 C2.7251747 2.2856304 2.9654387 3.64747473 3.3125 7.1875 C2.5881125 11.13793882 0.16938259 12.85491338 -2.8125 15.375 C-8.72639172 20.40053888 -11.40148781 24.38041561 -12.40234375 32.10546875 C-12.77183031 39.79259154 -11.57102472 45.73681708 -7 52 C-1.8044261 57.63552169 2.8207045 60.76774105 10.5 61.375 C14.74834242 61.79275367 17.11705626 62.6665963 20 66 C21.0625 69 21.0625 69 21 72 C19.15858081 74.34939689 17.6600106 75.6699947 15 77 C2.74887607 77.11987401 -7.49361279 72.32731233 -16.12890625 63.9296875 C-25.15536917 54.38790166 -27.53793101 44.86874784 -27.2734375 31.92578125 C-26.56240748 21.71742174 -22.63199246 14.56017199 -16 7 C-15.54238281 6.40058594 -15.08476562 5.80117188 -14.61328125 5.18359375 C-10.45512877 -0.26004436 -6.68994486 -2.03607018 0 0 Z " fill="#000000" transform="translate(410,608)"/>
<path d="M0 0 C7.1782453 3.73268756 11.81872983 10.60636265 16.8046875 16.80078125 C19.00828406 19.48293666 21.28543825 22.06126421 23.625 24.625 C27.44793041 28.82363219 31.04179525 33.16518942 34.61328125 37.578125 C38.02597093 41.71793519 41.54557478 45.76054628 45.08105469 49.7956543 C45.58926758 50.37742432 46.09748047 50.95919434 46.62109375 51.55859375 C47.14351151 52.13871216 47.66592926 52.71883057 48.20417786 53.31652832 C50.125 55.625 50.125 55.625 52.10508728 58.59822083 C56.69990801 65.13581007 56.69990801 65.13581007 63.60600281 68.7205658 C67.70457323 69.10680035 71.65026935 69.13564857 75.7578125 69.015625 C77.24568601 69.01568145 78.73356781 69.02104196 80.22140503 69.03143311 C84.10608418 69.04452321 87.9864314 68.98639577 91.87030029 68.91253662 C95.84573471 68.84982939 99.82103301 68.85568075 103.796875 68.85546875 C111.57436406 68.84509626 119.34855864 68.75936243 127.125 68.625 C127.42519043 67.51729248 127.72538086 66.40958496 128.03466797 65.26831055 C129.74496244 59.5534148 133.22175083 55.47542255 138.2578125 52.265625 C146.01080262 48.31760789 154.17300556 47.06572002 162.734375 49.30859375 C170.46978764 52.52279107 175.9284584 57.14392786 179.3984375 64.79296875 C182.08995262 71.5796386 182.33370213 79.94275478 180.0625 86.9375 C176.59828613 94.59438394 170.87734447 99.64203267 163.125 102.625 C156.33740772 104.88753076 147.54111958 104.70187546 140.96484375 101.7265625 C134.14582248 97.64383639 130.10660521 92.95477947 127.125 85.625 C127.125 84.965 127.125 84.305 127.125 83.625 C126.40218338 83.62944122 125.67936676 83.63388245 124.93464661 83.63845825 C118.06627878 83.67881425 111.19792906 83.70912467 104.32947254 83.72862434 C100.7997557 83.73898687 97.27013821 83.7530052 93.74047852 83.77587891 C89.66682067 83.80210765 85.59326439 83.81153489 81.51953125 83.8203125 C80.2742012 83.83063507 79.02887115 83.84095764 77.74580383 83.85159302 C56.22187065 83.85430196 56.22187065 83.85430196 49.875 78.625 C48.59210899 77.3232825 47.34344151 75.98723275 46.125 74.625 C45.05185547 73.48804688 45.05185547 73.48804688 43.95703125 72.328125 C39.19948432 67.18571627 34.77949891 61.78820004 30.375 56.34375 C28.18998431 53.70352271 25.93328609 51.1577028 23.625 48.625 C19.70412729 44.32293133 16.02887308 39.8622017 12.37109375 35.3359375 C10.21372217 32.7320838 7.97756081 30.23727167 5.6875 27.75 C2.2028066 23.88291546 -1.21098965 19.97188037 -4.5 15.9375 C-4.95044678 15.41494629 -5.40089355 14.89239258 -5.86499023 14.35400391 C-8.29448804 11.30238198 -8.87936226 9.80783565 -8.78515625 5.859375 C-7.875 2.625 -7.875 2.625 -5.6875 0.5625 C-2.875 -0.375 -2.875 -0.375 0 0 Z " fill="#000000" transform="translate(643.875,678.375)"/>
</svg>